Coordinates
version=1
nRows=22
nColumns=24
inDegrees=yes

Units are S.I. units (second, meters, Newtons, ...)
Angles are in degrees.

endheader
time	pelvis_tilt	pelvis_list	pelvis_rotation	pelvis_tx	pelvis_ty	pelvis_tz	hip_flexion_r	hip_adduction_r	hip_rotation_r	knee_angle_r	ankle_angle_r	subtalar_angle_r	mtp_angle_r	hip_flexion_l	hip_adduction_l	hip_rotation_l	knee_angle_l	ankle_angle_l	subtalar_angle_l	mtp_angle_l	lumbar_extension	lumbar_bending	lumbar_rotation
      5.51000000	      5.75990423	      4.01728831	      6.96766865	      1.17125778	      0.71910014	     -0.21143866	     15.76527269	      0.16020186	     11.34602162	      0.04361520	      6.07051695	    -15.03214589	      0.00000000	    -28.89149011	      4.03543077	     10.93926095	     -8.78304443	     14.61929334	    -11.65193205	      0.00000000	    -23.40860586	     -3.10725795	    -15.79843783
      5.52000000	      5.71282662	      3.31738770	      6.92156219	      1.18574057	      0.71835483	     -0.21119908	     15.17500272	      1.08968351	     13.01547025	     -0.11790355	      3.67202703	    -17.27029172	      0.00000000	    -28.90627938	      3.31159273	     10.20246459	    -10.47103325	     13.89050835	    -11.06554678	      0.00000000	    -22.87730365	     -2.36480208	    -15.80254159
      5.53000000	      5.74685906	      2.47694581	      6.84001450	      1.20022553	      0.71796663	     -0.21085791	     14.62715823	      2.23308670	     14.23995236	     -0.70199283	      1.07420928	    -19.53313990	      0.00000000	    -28.76665526	      2.47221204	      9.15738003	    -12.48172714	     12.98867360	    -10.41213063	      0.00000000	    -22.44364689	     -1.47444205	    -15.77286677
      5.54000000	      5.84335287	      1.52894588	      6.67822535	      1.21453606	      0.71794073	     -0.21037160	     14.23532898	      3.57965563	     14.87112679	     -1.79762875	     -1.21173799	    -21.36725402	      0.00000000	    -28.41406963	      1.55786679	      7.78277762	    -14.85236375	     11.82048276	     -9.75103406	      0.00000000	    -22.13823136	     -0.49404549	    -15.67121341
      5.55000000	      6.03421149	      0.48583153	      6.41487517	      1.22856493	      0.71832353	     -0.20977141	     13.96994694	      5.10688026	     14.83017962	     -3.35200236	     -2.67194922	    -22.33344546	      0.00000000	    -27.90101447	      0.57533198	      6.17212801	    -17.52177575	     10.20769593	     -9.26229709	      0.00000000	    -22.02797629	      0.57205391	    -15.48196549
      5.56000000	      6.29019697	     -0.59009455	      6.05780673	      1.24222699	      0.71906897	     -0.20908931	     13.76805351	      6.70199120	     14.42520273	     -5.17180403	     -3.26517185	    -22.68541648	      0.00000000	    -27.18588796	     -0.43639682	      4.38104208	    -20.48814530	      8.07511107	     -8.99489169	      0.00000000	    -22.10570725	      1.65218789	    -15.22930734
      5.57000000	      6.57414327	     -1.64843299	      5.64687688	      1.25547819	      0.72012235	     -0.20835726	     13.55005964	      8.26427096	     13.82489020	     -7.02643261	     -3.02450772	    -22.51362008	      0.00000000	    -26.19312296	     -1.49584159	      2.37763931	    -23.78740028	      5.44685329	     -8.74646171	      0.00000000	    -22.33505389	      2.68832122	    -14.94824822
      5.58000000	      6.85623235	     -2.59323947	      5.23299051	      1.26829097	      0.72147390	     -0.20767284	     13.29437318	      9.64434483	     12.79648846	     -8.79770078	     -1.72685780	    -21.23885111	      0.00000000	    -24.95171452	     -2.50925982	      0.50927791	    -27.29083634	      1.99958985	     -9.06339395	      0.00000000	    -22.67746124	      3.58283307	    -14.73001565
      5.59000000	      7.18941570	     -3.41822079	      4.87507521	      1.28076102	      0.72314664	     -0.20704486	     12.67802983	     10.83395050	     12.21027935	    -10.06501685	     -0.33012353	    -20.38713650	      0.00000000	    -23.56030652	     -3.50684029	     -1.13416640	    -30.90820569	     -2.24672736	     -9.91325433	      0.00000000	    -23.15505803	      4.33887178	    -14.52850367
      5.60000000	      7.44706187	     -4.12148399	      4.68366245	      1.29291363	      0.72498682	     -0.20655451	     11.81968690	     11.80051184	     11.79199692	    -10.75639561	      1.13162342	    -19.60474759	      0.00000000	    -21.81206313	     -4.54974022	     -2.50957928	    -34.72697040	     -7.05726181	    -11.02452299	      0.00000000	    -23.57031365	      4.97462180	    -14.49352610
      5.61000000	      7.63301224	     -4.69895095	      4.69784874	      1.30480168	      0.72696234	     -0.20624440	     10.73738066	     12.53737268	     11.36068859	    -10.88559544	      2.65522312	    -18.67625501	      0.00000000	    -19.74438417	     -5.61091947	     -3.48047305	    -38.66492647	    -12.27370723	    -12.37013066	      0.00000000	    -23.88800217	      5.50391590	    -14.64439788
      5.62000000	      7.69174616	     -5.09563308	      4.85676223	      1.31646438	      0.72896534	     -0.20606417	      9.46719047	     13.02326520	     11.30565814	    -10.45269849	      3.65038661	    -18.44920383	      0.00000000	    -17.36068256	     -6.55596675	     -4.03426100	    -42.60432969	    -17.51909315	    -13.75751199	      0.00000000	    -24.02865352	      5.83773442	    -14.85144724
      5.63000000	      7.73601459	     -5.33286234	      5.10410554	      1.32793759	      0.73108438	     -0.20601531	      8.00074704	     13.28716245	     11.24514007	     -9.64085848	      4.61166435	    -17.97128460	      0.00000000	    -14.86955040	     -7.32827804	     -4.22361190	    -46.39257638	    -22.45499169	    -15.02205247	      0.00000000	    -24.12416699	      6.00662867	    -15.08397849
      5.64000000	      7.67572029	     -5.43683186	      5.38338872	      1.33929822	      0.73316471	     -0.20607722	      6.46338423	     13.35519764	     11.16938752	     -8.50131564	      5.42381651	    -17.46863933	      0.00000000	    -12.22065380	     -7.89685173	     -4.14506910	    -49.97128934	    -26.45259890	    -15.82503818	      0.00000000	    -24.04966952	      6.01831481	    -15.22453805
      5.65000000	      7.56522705	     -5.41373033	      5.59893785	      1.35050331	      0.73520765	     -0.20621120	      4.90324847	     13.26359475	     11.14608104	     -7.24602020	      6.15090883	    -16.86516464	      0.00000000	     -9.54817757	     -8.19047528	     -3.89479823	    -53.24563324	    -29.20110690	    -16.14909362	      0.00000000	    -23.90854041	      5.87181714	    -15.21523776
      5.66000000	      7.40091972	     -5.32552657	      5.66240816	      1.36163963	      0.73715393	     -0.20632533	      3.30930510	     13.08014591	     11.32212120	     -5.85803321	      6.62078257	    -16.40974238	      0.00000000	     -6.91079295	     -8.29433918	     -3.70341284	    -56.16250789	    -30.42286433	    -15.93545225	      0.00000000	    -23.68222316	      5.60793491	    -14.97586937
      5.67000000	      7.14580211	     -5.12423480	      5.48723207	      1.37264267	      0.73895486	     -0.20636368	      1.84552643	     12.75920792	     11.64129430	     -4.57113278	      6.99904308	    -15.85028587	      0.00000000	     -4.32189704	     -8.09361420	     -3.59025164	    -58.67647276	    -30.23285703	    -15.47414239	      0.00000000	    -23.37056738	      5.14521666	    -14.41752117
      5.68000000	      6.91649166	     -4.89580363	      5.06358595	      1.38357025	      0.74065288	     -0.20629174	      0.39398683	     12.39618295	     12.10602407	     -3.37473151	      7.35737556	    -15.26644218	      0.00000000	     -1.92427504	     -7.78852484	     -3.73679634	    -60.78867796	    -28.71423851	    -14.81630527	      0.00000000	    -23.09704383	      4.60003405	    -13.54904011
      5.69000000	      6.70841915	     -4.67625023	      4.41330768	      1.39441382	      0.74219216	     -0.20610087	     -1.01413585	     12.02509873	     12.69966670	     -2.29357839	      7.64581038	    -14.69635924	      0.00000000	      0.30332338	     -7.46506136	     -4.15274316	    -62.53101706	    -26.16835487	    -14.25798949	      0.00000000	    -22.84955086	      4.02320091	    -12.44704861
      5.70000000	      6.52580164	     -4.45160897	      3.53400650	      1.40511679	      0.74355845	     -0.20576775	     -2.33198922	     11.63590830	     13.48392117	     -1.41482268	      7.96875981	    -14.19606970	      0.00000000	      2.36469172	     -7.11533707	     -4.80352397	    -63.92085970	    -22.99558163	    -14.05334563	      0.00000000	    -22.65515761	      3.39537548	    -11.07918618
      5.71000000	      6.37829131	     -4.23914117	      2.47413323	      1.41566544	      0.74474771	     -0.20531017	     -3.56886271	     11.24327587	     14.42381593	     -0.72337099	      8.30369383	    -13.77533908	      0.00000000	      4.27889396	     -6.80104443	     -5.65815368	    -64.98901625	    -19.54021557	    -14.29661896	      0.00000000	    -22.51615318	      2.75298424	     -9.53647688
      5.72000000	      6.27709126	     -4.05029315	      1.29492880	      1.42603305	      0.74576290	     -0.20477029	     -4.72392635	     10.86307703	     15.48936589	     -0.22922041	      8.66051072	    -13.50602230	      0.00000000	      6.06539857	     -6.55485684	     -6.64520736	    -65.76490688	    -16.03491088	    -14.99720037	      0.00000000	    -22.44282628	      2.12362998	     -7.90482451
